%FSLAX44Y44*%
%MOMM*%
G71*
G01*
G75*
G04 Layer_Physical_Order=1*
G04 Layer_Color=255*
%ADD10O,0.3500X1.4000*%
%ADD11R,1.2000X1.4000*%
%ADD12R,0.8000X2.5000*%
%ADD13C,0.6000*%
%ADD14C,0.8000*%
%ADD15C,0.9000*%
%ADD16C,2.0000*%
%ADD17C,0.5000*%
%ADD18C,0.4000*%
%ADD19P,1.9092X4X285.0*%
%ADD20C,1.3500*%
%ADD21O,2.0000X1.0000*%
%ADD22O,2.0000X1.0000*%
%ADD23R,1.7000X1.7000*%
%ADD24C,1.7000*%
%ADD25C,2.2000*%
D10*
X531290Y964498D02*
D03*
X537790D02*
D03*
X544290D02*
D03*
X550790D02*
D03*
X557290D02*
D03*
X563790D02*
D03*
X570290D02*
D03*
X531290Y908498D02*
D03*
X537790D02*
D03*
X544290D02*
D03*
X550790D02*
D03*
X557290D02*
D03*
X563790D02*
D03*
X570290D02*
D03*
D11*
X601480Y774446D02*
D03*
X619480D02*
D03*
D12*
X606416Y1037588D02*
D03*
X593716D02*
D03*
X581016D02*
D03*
X568316D02*
D03*
X555616D02*
D03*
X542916D02*
D03*
X501006Y784068D02*
D03*
X488306D02*
D03*
D13*
X487036Y807690D02*
Y810230D01*
X474590Y822676D01*
Y1057910D01*
D14*
X936612Y800100D02*
X715890D01*
X960326Y823814D02*
X936612Y800100D01*
X715890D02*
X696840Y819150D01*
X653406D01*
X488560Y755904D02*
Y806166D01*
D15*
X620496Y775462D02*
X619480Y774446D01*
X641976Y775462D02*
X620496D01*
X648326Y781812D02*
X641976Y775462D01*
X672456Y781812D02*
X648326D01*
X672710Y794766D02*
X671186Y796290D01*
X608956D01*
Y821436D01*
X713096Y925576D02*
X608956Y821436D01*
X713096Y925576D02*
Y966978D01*
X789296Y1043178D02*
X713096Y966978D01*
X890334Y780227D02*
X861439Y751332D01*
X685918D01*
X672710Y764540D01*
Y769366D01*
X685918Y751332D02*
X533742D01*
X501006Y784068D01*
X553076Y836138D02*
X501006Y784068D01*
X553076Y836138D02*
Y843788D01*
X535862Y861002D01*
X531290D01*
X570094Y774446D02*
X549266Y795274D01*
X601480Y774446D02*
X570094D01*
D16*
X817998Y839216D02*
Y1070356D01*
X818252Y838962D02*
X817998Y839216D01*
X818252Y838962D02*
X777358D01*
X776850Y838454D01*
D17*
X606416Y1003046D02*
Y1037588D01*
Y1003046D02*
X594986Y991616D01*
X570094D01*
X593716Y1007872D02*
Y1037588D01*
Y1007872D02*
X588128Y1002284D01*
X564506D01*
X557290Y995068D01*
X581016Y1018286D02*
Y1037588D01*
Y1018286D02*
X574666Y1011936D01*
X561966D01*
X550790Y1000760D01*
X568316Y1037588D02*
Y1065784D01*
X576190Y1073658D02*
X568316Y1065784D01*
X628514Y1073658D02*
X576190D01*
X636896Y1065276D02*
X628514Y1073658D01*
X636896Y892048D02*
Y1065276D01*
Y892048D02*
X623688Y878840D01*
X542916Y1037588D02*
Y1075182D01*
X555616Y1087882D02*
X542916Y1075182D01*
X636896Y1087882D02*
X555616D01*
X654168Y1070610D02*
X636896Y1087882D01*
X654168Y892810D02*
Y1070610D01*
Y892810D02*
X626736Y865378D01*
X506340Y1018286D02*
X491354Y1003300D01*
X555616Y1018286D02*
X506340D01*
X555616D02*
Y1037588D01*
X570290Y950664D02*
X544694Y925068D01*
X491354D01*
Y1003300D01*
X531290Y947986D02*
X528946Y945642D01*
X511674D01*
X566538Y930910D02*
X557290Y921662D01*
X597272Y930910D02*
X566538D01*
X597780Y931418D02*
X597272Y930910D01*
X570348Y908440D02*
X570290Y908498D01*
X623688Y878840D02*
X570348D01*
X563998Y865378D02*
X563790Y865586D01*
X626736Y865378D02*
X563998D01*
X537790Y978962D02*
X523612Y993140D01*
X908930Y1125982D02*
Y1143976D01*
X902932Y1137978D01*
X896934Y1143976D01*
Y1125982D01*
X890936D02*
Y1137978D01*
X884938Y1143976D01*
X878940Y1137978D01*
Y1125982D01*
Y1134979D01*
X890936D01*
X872942Y1143976D02*
Y1125982D01*
X863944D01*
X860945Y1128981D01*
Y1140977D01*
X863944Y1143976D01*
X872942D01*
X842951D02*
X854947D01*
Y1125982D01*
X842951D01*
X854947Y1134979D02*
X848949D01*
X818959Y1143976D02*
X812961D01*
X815960D01*
Y1125982D01*
X818959D01*
X812961D01*
X803964D02*
Y1143976D01*
X791968Y1125982D01*
Y1143976D01*
X767976D02*
Y1125982D01*
Y1131980D01*
X755979Y1143976D01*
X764977Y1134979D01*
X755979Y1125982D01*
X749981Y1143976D02*
X737985D01*
Y1140977D01*
X749981Y1128981D01*
Y1125982D01*
X737985D01*
D18*
X570094Y991616D02*
X563790Y985312D01*
Y964498D02*
Y985312D01*
X557290Y964498D02*
Y995068D01*
X550790Y964498D02*
Y1000760D01*
X570290Y950664D02*
Y964498D01*
X531290Y861002D02*
Y908498D01*
Y947986D02*
Y964498D01*
X557290Y908498D02*
Y921662D01*
X570348Y878840D02*
Y908440D01*
X563790Y865586D02*
Y908498D01*
X537790Y964498D02*
Y978962D01*
D19*
X915334Y823529D02*
D03*
X813880Y777179D02*
D03*
D20*
X890334Y780227D02*
D03*
X838880Y820481D02*
D03*
D21*
X672710Y769366D02*
D03*
D22*
Y782066D02*
D03*
Y794766D02*
D03*
D23*
X960326Y849214D02*
D03*
D24*
Y823814D02*
D03*
Y798414D02*
D03*
D25*
X653406Y819150D02*
D03*
X488814Y755904D02*
D03*
X474590Y1057910D02*
D03*
X776850Y838454D02*
D03*
X817998Y1070356D02*
D03*
X789296Y1043178D02*
D03*
X511674Y945642D02*
D03*
X597780Y931418D02*
D03*
X553076Y843788D02*
D03*
X523612Y993140D02*
D03*
X549266Y795274D02*
D03*
M02*
