%FSLAX44Y44*%
%MOMM*%
G71*
G01*
G75*
G04 Layer_Physical_Order=2*
G04 Layer_Color=16711680*
%ADD10O,0.3500X1.4000*%
%ADD11R,1.2000X1.4000*%
%ADD12R,0.8000X2.5000*%
%ADD13C,0.6000*%
%ADD14C,0.8000*%
%ADD15C,0.9000*%
%ADD16C,2.0000*%
%ADD17C,0.5000*%
%ADD18C,0.4000*%
%ADD19P,1.9092X4X285.0*%
%ADD20C,1.3500*%
%ADD21O,2.0000X1.0000*%
%ADD22O,2.0000X1.0000*%
%ADD23R,1.7000X1.7000*%
%ADD24C,1.7000*%
%ADD25C,2.2000*%
%ADD26R,5.0000X5.0000*%
%ADD27R,2.0000X2.0000*%
%ADD28C,2.0000*%
%ADD29C,3.0000*%
%ADD30R,1.4000X1.2000*%
%ADD31R,1.1000X1.4000*%
%ADD32C,1.5000*%
%ADD33C,1.0000*%
%ADD34C,2.5000*%
%ADD35R,6.5000X6.7500*%
%ADD36P,1.9092X4X345.0*%
G36*
X598424Y920936D02*
X502920Y920750D01*
Y946150D01*
X565924Y945936D01*
Y955936D01*
X598424D01*
Y920936D01*
D02*
G37*
G36*
X653424Y1145936D02*
X653424Y1145936D01*
X653424Y1145936D01*
Y1095936D01*
X640924D01*
X630924Y1105936D01*
Y1123462D01*
X535940Y1123950D01*
X504190Y1117600D01*
Y1146810D01*
X653424Y1145936D01*
D02*
G37*
D13*
X967740Y1057800D02*
X967850Y1057910D01*
X988060D01*
D14*
X950976Y945642D02*
X967740Y962406D01*
Y1057800D01*
X809244Y819150D02*
X851154D01*
X914400Y755904D01*
X974090D01*
D15*
X559809Y792734D02*
X572316Y780227D01*
X559809Y792734D02*
X568960Y801885D01*
Y850536D01*
X608591Y839216D02*
X625548Y822259D01*
X597154Y839216D02*
X608591D01*
X752094Y1121156D02*
Y1144524D01*
X924670Y1118870D02*
X967740Y1075800D01*
X900310Y1118870D02*
X924670D01*
X617992Y1043178D02*
X673354D01*
X582874Y1078296D02*
X617992Y1043178D01*
X841756Y954532D02*
X864870Y931418D01*
X841756Y954532D02*
Y1120140D01*
X865124Y1143508D01*
X899414D01*
X900310Y1142612D01*
Y1118870D02*
Y1142612D01*
X885310Y864496D02*
Y1118870D01*
Y864496D02*
X907796Y842010D01*
X914908Y969010D02*
X939038Y993140D01*
X914908Y892302D02*
Y969010D01*
Y892302D02*
X954532Y852678D01*
Y836422D02*
Y852678D01*
X913384Y795274D02*
X954532Y836422D01*
D16*
X502324Y823814D02*
X502609Y823529D01*
X687154Y808906D02*
X687324Y808736D01*
X736094Y867156D02*
X752094Y851156D01*
X687154Y867156D02*
X736094D01*
X644652Y1070356D02*
Y1096518D01*
X642874Y1098296D02*
X644652Y1096518D01*
X687324Y776986D02*
X727202D01*
X752094Y801878D01*
Y851156D01*
X687154Y808906D02*
Y839216D01*
D20*
X572316Y780227D02*
D03*
X623770Y820481D02*
D03*
D21*
X789940Y769366D02*
D03*
D22*
Y782066D02*
D03*
Y794766D02*
D03*
D23*
X502324Y849214D02*
D03*
D24*
Y823814D02*
D03*
Y798414D02*
D03*
D25*
X809244Y819150D02*
D03*
X973836Y755904D02*
D03*
X988060Y1057910D02*
D03*
X685800Y838454D02*
D03*
X644652Y1070356D02*
D03*
X673354Y1043178D02*
D03*
X950976Y945642D02*
D03*
X864870Y931418D02*
D03*
X909574Y843788D02*
D03*
X939038Y993140D02*
D03*
X913384Y795274D02*
D03*
D26*
X760730Y856490D02*
D03*
Y1126490D02*
D03*
D27*
X512572Y995426D02*
D03*
Y1114806D02*
D03*
D28*
Y944626D02*
D03*
X687154Y839216D02*
D03*
X597154D02*
D03*
X687154Y867156D02*
D03*
X597154D02*
D03*
X597324Y808736D02*
D03*
X687324D02*
D03*
X597324Y776986D02*
D03*
X687324D02*
D03*
X512572Y1064006D02*
D03*
D29*
X582874Y956296D02*
D03*
Y1078296D02*
D03*
X642874Y1098296D02*
D03*
X702874Y956296D02*
D03*
Y1078296D02*
D03*
D30*
X547624Y868536D02*
D03*
Y850536D02*
D03*
X568960Y868536D02*
D03*
Y850536D02*
D03*
X967740Y1075800D02*
D03*
Y1057800D02*
D03*
D31*
X900310Y1118870D02*
D03*
X885310D02*
D03*
D32*
X502609Y823529D02*
X547316D01*
Y850228D01*
X597324Y776986D02*
X648577D01*
X502324Y798414D02*
X538738Y762000D01*
X584200D01*
X597324Y775124D01*
Y776986D01*
X648770Y777179D02*
Y979732D01*
X702874Y1033836D01*
Y1078296D01*
X648577Y776986D02*
X648770Y777179D01*
D33*
X506134Y848706D02*
Y862166D01*
X512504Y868536D01*
X547624D01*
X568960D01*
X568960Y868536D01*
Y850536D02*
X580280Y839216D01*
X597154D01*
D34*
Y867156D01*
X597324Y776986D02*
Y808736D01*
D35*
X514870Y1029684D02*
D03*
D36*
X547316Y823529D02*
D03*
X648770Y777179D02*
D03*
M02*
